<svg width="20" height="20" viewBox="0 0 20 20" fill="none" xmlns="http://www.w3.org/2000/svg">
<g clip-path="url(#clip0_1096_13134)">
<path d="M17.791 7.77467V5.875V3.47857C17.791 2.52391 17.0171 1.75 16.0624 1.75H3.01959C2.06492 1.75 1.29102 2.52391 1.29102 3.47857V16.5214C1.29102 17.4761 2.06492 18.25 3.01959 18.25H16.0624C17.0171 18.25 17.791 17.4761 17.791 16.5214V14.125V12.75" stroke="#4A4A4A" stroke-width="1.265"/>
<path d="M17.5696 12.7093C17.8853 12.7093 18.1881 12.5989 18.4114 12.4024C18.6346 12.206 18.76 11.9395 18.76 11.6617V8.51881C18.76 8.24096 18.6346 7.9745 18.4114 7.77803C18.1881 7.58157 17.8853 7.47119 17.5696 7.47119H14.5934C13.804 7.47119 13.047 7.74713 12.4889 8.23829C11.9307 8.72946 11.6172 9.39562 11.6172 10.0902C11.6172 10.7849 11.9307 11.451 12.4889 11.9422C13.047 12.4334 13.804 12.7093 14.5934 12.7093H17.5696Z" stroke="#4A4A4A" stroke-width="1.265" stroke-linecap="round" stroke-linejoin="round"/>
<path d="M14.1169 9.71631C14.1875 9.71631 14.2566 9.73825 14.3153 9.77936C14.3741 9.82048 14.4198 9.87891 14.4469 9.94728C14.4739 10.0156 14.481 10.0909 14.4672 10.1635C14.4534 10.236 14.4194 10.3027 14.3694 10.355C14.3195 10.4073 14.2559 10.443 14.1866 10.4574C14.1173 10.4719 14.0455 10.4644 13.9802 10.4361C13.915 10.4078 13.8592 10.3599 13.82 10.2983C13.7807 10.2368 13.7598 10.1645 13.7598 10.0905C13.7598 9.99123 13.7974 9.89606 13.8644 9.82589C13.9313 9.75573 14.0222 9.71631 14.1169 9.71631Z" stroke="#4A4A4A" stroke-width="1.265" stroke-linecap="round" stroke-linejoin="round"/>
</g>
<defs>
<clipPath id="clip0_1096_13134">
<rect width="19.25" height="18.3333" fill="white" transform="translate(0.375 0.833496)"/>
</clipPath>
</defs>
</svg>
