<svg width="48" height="42" viewBox="0 0 48 42" fill="none" xmlns="http://www.w3.org/2000/svg">
<path d="M23.9996 40L5.24882 20.6911C3.60204 19.0665 2.5153 16.9713 2.1428 14.7028C1.7703 12.4342 2.13093 10.1074 3.17355 8.05254C3.95951 6.50071 5.10784 5.15548 6.52387 4.12772C7.93991 3.09997 9.58311 2.41912 11.318 2.14129C13.053 1.86346 14.83 1.99661 16.5025 2.52976C18.1751 3.06292 19.6954 3.98081 20.938 5.20778L23.9996 8.22989L27.0611 5.20778C28.3041 3.98082 29.8247 3.06296 31.4975 2.52982C33.1704 1.99669 34.9476 1.86355 36.6828 2.14136C38.418 2.41917 40.0614 3.09998 41.4778 4.12771C42.8942 5.15544 44.0429 6.50066 44.8293 8.05254C45.8703 10.108 46.2297 12.4347 45.8566 14.7031C45.4835 16.9714 44.3967 19.0664 42.7503 20.6911L23.9996 40Z" fill="#2BB25D" stroke="#2BB25D" stroke-width="2.74519" stroke-linecap="round" stroke-linejoin="round"/>
</svg>
