<svg width="24" height="24" viewBox="0 0 24 24" fill="none" xmlns="http://www.w3.org/2000/svg">
<path d="M15.0001 6.49994C15.0001 7.16297 15.2635 7.79884 15.7324 8.26767C16.2012 8.7365 16.8371 8.99988 17.5002 8.99988C18.1632 8.99988 18.7991 8.7365 19.268 8.26767C19.7368 7.79884 20.0002 7.16297 20.0002 6.49994C20.0002 5.83692 19.7368 5.20105 19.268 4.73222C18.7991 4.26339 18.1632 4 17.5002 4C16.8371 4 16.2012 4.26339 15.7324 4.73222C15.2635 5.20105 15.0001 5.83692 15.0001 6.49994V6.49994Z" stroke="black" stroke-width="1.5" stroke-linecap="round" stroke-linejoin="round"/>
<path d="M19.2679 8.26733L20.9999 10.0001" stroke="black" stroke-width="1.5" stroke-linecap="round" stroke-linejoin="round"/>
<path d="M12.6001 8.79987H4.20002C3.88175 8.79987 3.57652 8.67344 3.35148 8.4484C3.12643 8.22337 3 7.91815 3 7.5999V6.39992C3 6.08167 3.12643 5.77645 3.35148 5.55141C3.57652 5.32638 3.88175 5.19995 4.20002 5.19995H12.6001" stroke="black" stroke-width="1.5" stroke-linecap="round" stroke-linejoin="round"/>
<path d="M4.49994 11.7999C4.55928 11.7999 4.61728 11.8175 4.66661 11.8504C4.71594 11.8834 4.7544 11.9302 4.7771 11.9851C4.79981 12.0399 4.80575 12.1002 4.79417 12.1584C4.7826 12.2166 4.75403 12.27 4.71207 12.312C4.67012 12.3539 4.61666 12.3825 4.55847 12.3941C4.50028 12.4057 4.43996 12.3997 4.38514 12.377C4.33033 12.3543 4.28347 12.3159 4.25051 12.2665C4.21755 12.2172 4.19995 12.1592 4.19995 12.0999C4.19995 12.0203 4.23156 11.944 4.28782 11.8877C4.34408 11.8315 4.42038 11.7999 4.49994 11.7999Z" stroke="black" stroke-width="1.5" stroke-linecap="round" stroke-linejoin="round"/>
<path d="M7.20001 12.3998H16.8001" stroke="black" stroke-width="1.5" stroke-linecap="round" stroke-linejoin="round"/>
<path d="M4.49994 15.9997C4.55928 15.9997 4.61728 16.0173 4.66661 16.0503C4.71594 16.0832 4.7544 16.1301 4.7771 16.1849C4.79981 16.2397 4.80575 16.3 4.79417 16.3582C4.7826 16.4164 4.75403 16.4699 4.71207 16.5118C4.67012 16.5538 4.61666 16.5823 4.55847 16.5939C4.50028 16.6055 4.43996 16.5996 4.38514 16.5768C4.33033 16.5541 4.28347 16.5157 4.25051 16.4664C4.21755 16.417 4.19995 16.359 4.19995 16.2997C4.19995 16.2201 4.23156 16.1438 4.28782 16.0876C4.34408 16.0313 4.42038 15.9997 4.49994 15.9997Z" stroke="black" stroke-width="1.5" stroke-linecap="round" stroke-linejoin="round"/>
<path d="M7.20001 16.5997H16.8001" stroke="black" stroke-width="1.5" stroke-linecap="round" stroke-linejoin="round"/>
<path d="M4.49994 20.1997C4.55928 20.1997 4.61728 20.2173 4.66661 20.2503C4.71594 20.2832 4.7544 20.3301 4.7771 20.3849C4.79981 20.4397 4.80575 20.5 4.79417 20.5582C4.7826 20.6164 4.75403 20.6699 4.71207 20.7118C4.67012 20.7538 4.61666 20.7824 4.55847 20.7939C4.50028 20.8055 4.43996 20.7996 4.38514 20.7769C4.33033 20.7542 4.28347 20.7157 4.25051 20.6664C4.21755 20.617 4.19995 20.559 4.19995 20.4997C4.19995 20.4201 4.23156 20.3438 4.28782 20.2876C4.34408 20.2313 4.42038 20.1997 4.49994 20.1997Z" stroke="black" stroke-width="1.5" stroke-linecap="round" stroke-linejoin="round"/>
<path d="M7.20001 20.7997H16.8001" stroke="black" stroke-width="1.5" stroke-linecap="round" stroke-linejoin="round"/>
</svg>
