<svg width="20" height="20" viewBox="0 0 20 20" fill="none" xmlns="http://www.w3.org/2000/svg">
<path d="M11.7988 13.5988H11.1988C10.5361 13.5988 9.99883 13.0616 9.99883 12.3988V9.39883C9.99883 9.06746 9.7302 8.79883 9.39883 8.79883H8.79883" stroke="#4A4A4A" stroke-width="1.375" stroke-linecap="round" stroke-linejoin="round"/>
<path d="M9.70039 5.7998C9.53471 5.7998 9.40039 5.93412 9.40039 6.0998C9.40039 6.26549 9.53471 6.3998 9.70039 6.3998C9.86608 6.3998 10.0004 6.26549 10.0004 6.0998C10.0004 5.93412 9.86608 5.7998 9.70039 5.7998V5.7998" stroke="#4A4A4A" stroke-width="1.375" stroke-linecap="round" stroke-linejoin="round"/>
<path fill-rule="evenodd" clip-rule="evenodd" d="M10 19C14.9706 19 19 14.9706 19 10C19 5.02944 14.9706 1 10 1C5.02944 1 1 5.02944 1 10C1 14.9706 5.02944 19 10 19Z" stroke="#4A4A4A" stroke-width="1.375" stroke-linecap="round" stroke-linejoin="round"/>
</svg>
