<svg width="24" height="24" viewBox="0 0 24 24" fill="none" xmlns="http://www.w3.org/2000/svg">
<path d="M13.8003 15.5991H13.2003C12.5376 15.5991 12.0003 15.0618 12.0003 14.3991V11.3991C12.0003 11.0677 11.7317 10.7991 11.4003 10.7991H10.8003" stroke="black" stroke-width="1.5" stroke-linecap="round" stroke-linejoin="round"/>
<path d="M11.7004 7.7998C11.5347 7.7998 11.4004 7.93412 11.4004 8.0998C11.4004 8.26549 11.5347 8.3998 11.7004 8.3998C11.8661 8.3998 12.0004 8.26549 12.0004 8.0998C12.0004 7.93412 11.8661 7.7998 11.7004 7.7998V7.7998" stroke="black" stroke-width="1.5" stroke-linecap="round" stroke-linejoin="round"/>
<path fill-rule="evenodd" clip-rule="evenodd" d="M12 20.9998C16.9706 20.9998 21 16.9703 21 11.9998C21 7.02919 16.9706 2.99976 12 2.99976C7.02944 2.99976 3 7.02919 3 11.9998C3 16.9703 7.02944 20.9998 12 20.9998Z" stroke="black" stroke-width="1.5" stroke-linecap="round" stroke-linejoin="round"/>
</svg>
