<svg width="22" height="22" viewBox="0 0 22 22" fill="none" xmlns="http://www.w3.org/2000/svg">
<path d="M13.4757 19.4582L13.4855 19.4639C14.3509 20.0149 15.3784 20.2542 16.3983 20.1423C17.4181 20.0305 18.3693 19.5741 19.0948 18.8487L19.7255 18.218C20.0071 17.936 20.1654 17.5536 20.1654 17.155C20.1654 16.7564 20.0071 16.3741 19.7255 16.0921L17.0683 13.4366C16.7863 13.1549 16.404 12.9967 16.0054 12.9967C15.6068 12.9967 15.2244 13.1549 14.9424 13.4366V13.4366C14.8029 13.5762 14.6373 13.687 14.455 13.7626C14.2727 13.8382 14.0772 13.8771 13.8799 13.8771C13.6825 13.8771 13.4871 13.8382 13.3048 13.7626C13.1224 13.687 12.9568 13.5762 12.8173 13.4366L8.56556 9.18397C8.28388 8.90193 8.12566 8.51963 8.12566 8.12102C8.12566 7.72241 8.28388 7.34011 8.56556 7.05807V7.05807C8.7052 6.9186 8.81598 6.75297 8.89157 6.57065C8.96715 6.38833 9.00606 6.1929 9.00606 5.99554C9.00606 5.79817 8.96715 5.60274 8.89157 5.42042C8.81598 5.2381 8.7052 5.07247 8.56556 4.933L5.90921 2.27339C5.62718 1.99171 5.24487 1.8335 4.84626 1.8335C4.44766 1.8335 4.06535 1.99171 3.78332 2.27339L3.15264 2.90407C2.4273 3.62958 1.97098 4.5807 1.85899 5.60047C1.747 6.62025 1.98603 7.64773 2.53663 8.51336L2.54315 8.52314C5.45487 12.8334 9.16606 16.5455 13.4757 19.4582V19.4582Z" stroke="#4A4A4A" stroke-width="1.14583" stroke-linecap="round" stroke-linejoin="round"/>
</svg>
