<svg width="72" height="16" viewBox="0 0 72 16" fill="none" xmlns="http://www.w3.org/2000/svg">
<rect width="72" height="16" rx="8" fill="#0566EC"/>
<path d="M8.72612 12V4.72727H11.4534C12.0121 4.72727 12.4809 4.83144 12.8596 5.03977C13.2408 5.24811 13.5284 5.53456 13.7226 5.89915C13.9191 6.26136 14.0173 6.6733 14.0173 7.13494C14.0173 7.60133 13.9191 8.01562 13.7226 8.37784C13.5261 8.74006 13.2361 9.02533 12.8525 9.23366C12.469 9.43963 11.9967 9.54261 11.4356 9.54261H9.62811V8.45952H11.2581C11.5848 8.45952 11.8523 8.4027 12.0606 8.28906C12.269 8.17543 12.4229 8.01918 12.5223 7.82031C12.6241 7.62145 12.675 7.39299 12.675 7.13494C12.675 6.87689 12.6241 6.64962 12.5223 6.45312C12.4229 6.25663 12.2678 6.10393 12.0571 5.99503C11.8488 5.88376 11.58 5.82812 11.251 5.82812H10.0436V12H8.72612ZM15.1048 12V6.54545H16.3513V7.45455H16.4081C16.5075 7.13968 16.678 6.89702 16.9195 6.72656C17.1633 6.55374 17.4415 6.46733 17.754 6.46733C17.825 6.46733 17.9043 6.47088 17.9919 6.47798C18.0819 6.48272 18.1565 6.491 18.2156 6.50284V7.68537C18.1612 7.66643 18.0748 7.64986 17.9564 7.63565C17.8404 7.61908 17.728 7.6108 17.6191 7.6108C17.3847 7.6108 17.174 7.66169 16.9869 7.76349C16.8023 7.86293 16.6567 8.00142 16.5502 8.17898C16.4436 8.35653 16.3904 8.56132 16.3904 8.79332V12H15.1048ZM21.2599 12.1065C20.713 12.1065 20.2407 11.9929 19.843 11.7656C19.4476 11.536 19.1434 11.2116 18.9303 10.7926C18.7172 10.3712 18.6107 9.87524 18.6107 9.30469C18.6107 8.74361 18.7172 8.25118 18.9303 7.82741C19.1457 7.40128 19.4464 7.06984 19.8323 6.8331C20.2182 6.59399 20.6715 6.47443 21.1924 6.47443C21.5286 6.47443 21.8458 6.52888 22.1441 6.63778C22.4448 6.74432 22.7099 6.91004 22.9395 7.13494C23.1715 7.35985 23.3538 7.64631 23.4864 7.99432C23.619 8.33996 23.6853 8.75189 23.6853 9.23011V9.62429H19.2144V8.75781H22.453C22.4507 8.5116 22.3974 8.29261 22.2932 8.10085C22.1891 7.90672 22.0435 7.75402 21.8564 7.64276C21.6718 7.53149 21.4564 7.47585 21.2101 7.47585C20.9474 7.47585 20.7165 7.53977 20.5177 7.66761C20.3188 7.79309 20.1637 7.95881 20.0525 8.16477C19.9436 8.36837 19.8879 8.59209 19.8856 8.83594V9.59233C19.8856 9.90956 19.9436 10.1818 20.0596 10.4091C20.1756 10.634 20.3377 10.8068 20.5461 10.9276C20.7544 11.0459 20.9983 11.1051 21.2776 11.1051C21.4646 11.1051 21.6339 11.0791 21.7854 11.027C21.9369 10.9725 22.0683 10.8932 22.1796 10.7891C22.2909 10.6849 22.3749 10.5559 22.4317 10.402L23.632 10.5369C23.5563 10.8542 23.4118 11.1312 23.1988 11.3679C22.9881 11.6023 22.7182 11.7846 22.3891 11.9148C22.06 12.0426 21.6836 12.1065 21.2599 12.1065ZM27.1521 12.1065C26.6076 12.1065 26.14 11.987 25.7494 11.7479C25.3611 11.5088 25.0616 11.1785 24.8509 10.7571C24.6426 10.3333 24.5384 9.84564 24.5384 9.29403C24.5384 8.74006 24.645 8.25118 24.858 7.82741C25.0711 7.40128 25.3718 7.06984 25.76 6.8331C26.1507 6.59399 26.6123 6.47443 27.145 6.47443C27.5877 6.47443 27.9795 6.55611 28.3204 6.71946C28.6637 6.88045 28.9371 7.1089 29.1407 7.40483C29.3443 7.69839 29.4603 8.04167 29.4887 8.43466H28.26C28.2103 8.17187 28.0919 7.95289 27.9049 7.7777C27.7203 7.60014 27.4729 7.51136 27.1627 7.51136C26.8999 7.51136 26.6691 7.58239 26.4703 7.72443C26.2714 7.86411 26.1163 8.06534 26.0051 8.32812C25.8962 8.59091 25.8417 8.90578 25.8417 9.27273C25.8417 9.64441 25.8962 9.96402 26.0051 10.2315C26.114 10.4967 26.2667 10.7015 26.4632 10.8459C26.662 10.9879 26.8952 11.0589 27.1627 11.0589C27.3521 11.0589 27.5214 11.0234 27.6705 10.9524C27.8221 10.879 27.9487 10.7737 28.0505 10.6364C28.1523 10.4991 28.2222 10.3321 28.26 10.1357H29.4887C29.4579 10.5215 29.3443 10.8636 29.1478 11.1619C28.9513 11.4579 28.6838 11.6899 28.3453 11.858C28.0067 12.0237 27.609 12.1065 27.1521 12.1065ZM31.8298 4.72727V12H30.5443V4.72727H31.8298ZM35.531 12.1065C34.9983 12.1065 34.5367 11.9893 34.146 11.755C33.7554 11.5206 33.4524 11.1927 33.2369 10.7713C33.0239 10.3499 32.9173 9.85748 32.9173 9.29403C32.9173 8.73059 33.0239 8.23698 33.2369 7.81321C33.4524 7.38944 33.7554 7.06037 34.146 6.82599C34.5367 6.59162 34.9983 6.47443 35.531 6.47443C36.0637 6.47443 36.5253 6.59162 36.9159 6.82599C37.3066 7.06037 37.6084 7.38944 37.8215 7.81321C38.0369 8.23698 38.1446 8.73059 38.1446 9.29403C38.1446 9.85748 38.0369 10.3499 37.8215 10.7713C37.6084 11.1927 37.3066 11.5206 36.9159 11.755C36.5253 11.9893 36.0637 12.1065 35.531 12.1065ZM35.5381 11.0767C35.8269 11.0767 36.0684 10.9974 36.2625 10.8388C36.4566 10.6778 36.6011 10.4624 36.6958 10.1925C36.7928 9.92259 36.8414 9.62192 36.8414 9.29048C36.8414 8.95668 36.7928 8.65483 36.6958 8.38494C36.6011 8.11269 36.4566 7.89607 36.2625 7.73509C36.0684 7.5741 35.8269 7.49361 35.5381 7.49361C35.2422 7.49361 34.9959 7.5741 34.7994 7.73509C34.6053 7.89607 34.4597 8.11269 34.3627 8.38494C34.268 8.65483 34.2206 8.95668 34.2206 9.29048C34.2206 9.62192 34.268 9.92259 34.3627 10.1925C34.4597 10.4624 34.6053 10.6778 34.7994 10.8388C34.9959 10.9974 35.2422 11.0767 35.5381 11.0767ZM43.5468 7.98722L42.3749 8.11506C42.3418 7.99669 42.2838 7.88542 42.2009 7.78125C42.1204 7.67708 42.0115 7.59304 41.8742 7.52912C41.7369 7.4652 41.5688 7.43324 41.3699 7.43324C41.1024 7.43324 40.8775 7.49124 40.6952 7.60724C40.5153 7.72325 40.4265 7.87358 40.4289 8.05824C40.4265 8.21686 40.4845 8.34588 40.6029 8.44531C40.7236 8.54474 40.9225 8.62642 41.1995 8.69034L42.1299 8.8892C42.646 9.00047 43.0295 9.17685 43.2805 9.41832C43.5338 9.6598 43.6616 9.97585 43.664 10.3665C43.6616 10.7098 43.561 11.0128 43.3621 11.2756C43.1656 11.536 42.8922 11.7396 42.5418 11.8864C42.1914 12.0331 41.789 12.1065 41.3344 12.1065C40.6668 12.1065 40.1294 11.9669 39.7222 11.6875C39.315 11.4058 39.0724 11.014 38.9942 10.5121L40.2478 10.3913C40.3046 10.6375 40.4253 10.8234 40.61 10.9489C40.7947 11.0743 41.0349 11.1371 41.3309 11.1371C41.6363 11.1371 41.8813 11.0743 42.066 10.9489C42.253 10.8234 42.3465 10.6683 42.3465 10.4837C42.3465 10.3274 42.2861 10.1984 42.1654 10.0966C42.047 9.99479 41.8624 9.91667 41.6114 9.86222L40.681 9.6669C40.1578 9.558 39.7707 9.37453 39.5198 9.11648C39.2689 8.85606 39.1446 8.52699 39.1469 8.12926C39.1446 7.79309 39.2357 7.50189 39.4204 7.25568C39.6074 7.0071 39.8666 6.81534 40.1981 6.6804C40.5319 6.54309 40.9166 6.47443 41.3522 6.47443C41.9914 6.47443 42.4945 6.61056 42.8614 6.88281C43.2307 7.15507 43.4592 7.5232 43.5468 7.98722ZM47.1388 12.1065C46.5919 12.1065 46.1196 11.9929 45.7219 11.7656C45.3265 11.536 45.0223 11.2116 44.8092 10.7926C44.5961 10.3712 44.4896 9.87524 44.4896 9.30469C44.4896 8.74361 44.5961 8.25118 44.8092 7.82741C45.0247 7.40128 45.3253 7.06984 45.7112 6.8331C46.0971 6.59399 46.5505 6.47443 47.0713 6.47443C47.4075 6.47443 47.7247 6.52888 48.023 6.63778C48.3237 6.74432 48.5888 6.91004 48.8184 7.13494C49.0505 7.35985 49.2327 7.64631 49.3653 7.99432C49.4979 8.33996 49.5642 8.75189 49.5642 9.23011V9.62429H45.0933V8.75781H48.3319C48.3296 8.5116 48.2763 8.29261 48.1721 8.10085C48.068 7.90672 47.9224 7.75402 47.7354 7.64276C47.5507 7.53149 47.3353 7.47585 47.089 7.47585C46.8263 7.47585 46.5954 7.53977 46.3966 7.66761C46.1977 7.79309 46.0426 7.95881 45.9314 8.16477C45.8225 8.36837 45.7668 8.59209 45.7645 8.83594V9.59233C45.7645 9.90956 45.8225 10.1818 45.9385 10.4091C46.0545 10.634 46.2166 10.8068 46.425 10.9276C46.6333 11.0459 46.8772 11.1051 47.1565 11.1051C47.3435 11.1051 47.5128 11.0791 47.6643 11.027C47.8158 10.9725 47.9472 10.8932 48.0585 10.7891C48.1698 10.6849 48.2538 10.5559 48.3106 10.402L49.5109 10.5369C49.4352 10.8542 49.2907 11.1312 49.0777 11.3679C48.867 11.6023 48.5971 11.7846 48.268 11.9148C47.939 12.0426 47.5625 12.1065 47.1388 12.1065Z" fill="white"/>
<path d="M62.808 7.51283L60.1906 6.51469L59.2133 3.21454C59.1756 3.08727 59.0612 3 58.9321 3C58.803 3 58.6886 3.08727 58.6509 3.21454L57.6738 6.51469L55.0562 7.51283C54.9406 7.55707 54.8641 7.67009 54.8641 7.79706C54.8641 7.92372 54.9406 8.03735 55.0562 8.08129L57.6724 9.07912L58.65 12.4799C58.6871 12.6084 58.8018 12.6965 58.9321 12.6965C59.0621 12.6965 59.1771 12.6084 59.2142 12.4796L60.1918 9.07882L62.8083 8.08098C62.9233 8.03735 63.0001 7.92402 63.0001 7.79706C63.0001 7.6704 62.9233 7.55707 62.808 7.51283Z" fill="white"/>
<path d="M56.9256 10.8479L56.245 10.5885L55.9803 9.58856C55.9456 9.45645 55.8294 9.36493 55.6968 9.36493C55.5641 9.36493 55.448 9.45644 55.413 9.58826L55.1483 10.5882L54.468 10.8476C54.3524 10.8915 54.2759 11.0052 54.2759 11.1318C54.2759 11.2585 54.3524 11.3721 54.468 11.4161L55.1447 11.6745L55.4115 12.7721C55.4444 12.9066 55.5618 13.0011 55.6968 13.0011C55.8318 13.0011 55.9491 12.9066 55.9821 12.7717L56.2489 11.6742L56.9256 11.4158C57.0412 11.3721 57.1177 11.2585 57.1177 11.1318C57.1177 11.0052 57.0412 10.8915 56.9256 10.8479ZM55.6497 4.28365L54.9544 4.01851L54.6968 3.30187C54.6541 3.18279 54.5441 3.104 54.4209 3.104C54.298 3.104 54.188 3.18279 54.145 3.30187L53.8877 4.01851L53.1921 4.28365C53.0765 4.32789 53 4.44122 53 4.56788C53 4.69454 53.0765 4.80817 53.1921 4.85211L53.8877 5.11725L54.145 5.83388C54.188 5.95297 54.298 6.03175 54.4209 6.03175C54.5438 6.03175 54.6538 5.95297 54.6968 5.83388L54.9541 5.11725L55.6497 4.85211C55.7653 4.80787 55.8418 4.69454 55.8418 4.56788C55.8418 4.44122 55.7653 4.32789 55.6497 4.28365Z" fill="white"/>
</svg>
