<svg width="22" height="22" viewBox="0 0 22 22" fill="none" xmlns="http://www.w3.org/2000/svg">
<path fill-rule="evenodd" clip-rule="evenodd" d="M11 21C16.5228 21 21 16.5228 21 11C21 5.47715 16.5228 1 11 1C5.47715 1 1 5.47715 1 11C1 16.5228 5.47715 21 11 21Z" stroke="#4A4A4A" stroke-width="1.375" stroke-linecap="round" stroke-linejoin="round"/>
<path d="M9.21408 6.63542H8.60051L8.64894 6.45833H13.4049L13.3488 6.67086L12.2715 6.65985L11.3777 6.65072L11.892 7.38186C12.098 7.6748 12.2374 8.02745 12.3025 8.43549L12.3641 8.82161H12.7551H13.4049L13.3479 9.03776H12.7727H12.3683L12.318 9.43907C12.245 10.021 12.0204 10.5038 11.634 10.8429C11.2484 11.1814 10.6518 11.4206 9.75073 11.4206H9.72434H8.81828L9.35512 12.1505L11.8493 15.5417H11.5573L8.56069 11.4701L8.55625 11.263H9.68915C10.2796 11.263 10.8159 11.145 11.2415 10.8614C11.6789 10.5699 11.9559 10.1322 12.0653 9.58606L12.175 9.03776H11.6158H8.59507L8.65214 8.82161H11.585H12.1729L12.0295 8.25147C11.9134 7.78993 11.6767 7.39334 11.302 7.10685C10.9312 6.82333 10.4607 6.67453 9.91971 6.64117L9.90726 6.6404L9.8948 6.64031L9.21738 6.63543L9.21738 6.63542H9.21408Z" fill="#4A4A4A" stroke="#4A4A4A" stroke-width="0.916667"/>
</svg>
