<svg width="16" height="16" viewBox="0 0 16 16" fill="none" xmlns="http://www.w3.org/2000/svg">
<path d="M4.28589 13.1408H10.4273C10.6467 13.1408 10.8589 13.0631 11.0265 12.9216C11.1941 12.7801 11.3062 12.5838 11.3429 12.3676L12.9753 2.77255C13.0121 2.55642 13.1242 2.36029 13.2918 2.21889C13.4594 2.07749 13.6716 1.99995 13.8908 2H14.4999" stroke="white" stroke-width="0.89435" stroke-linecap="round" stroke-linejoin="round"/>
<path d="M10.0896 14.1328C10.1355 14.1328 10.1804 14.1464 10.2185 14.1719C10.2567 14.1974 10.2865 14.2337 10.304 14.2761C10.3216 14.3185 10.3262 14.3652 10.3172 14.4102C10.3083 14.4553 10.2862 14.4966 10.2537 14.5291C10.2212 14.5616 10.1799 14.5837 10.1348 14.5926C10.0898 14.6016 10.0431 14.597 10.0007 14.5794C9.95831 14.5618 9.92205 14.5321 9.89654 14.4939C9.87104 14.4557 9.85742 14.4109 9.85742 14.365C9.85742 14.3034 9.88188 14.2443 9.92541 14.2008C9.96895 14.1573 10.028 14.1328 10.0896 14.1328" stroke="white" stroke-width="0.89435" stroke-linecap="round" stroke-linejoin="round"/>
<path d="M5.19869 14.1328C5.2446 14.1328 5.28948 14.1464 5.32766 14.1719C5.36583 14.1974 5.39559 14.2337 5.41316 14.2761C5.43073 14.3185 5.43532 14.3652 5.42637 14.4102C5.41741 14.4553 5.3953 14.4966 5.36284 14.5291C5.33037 14.5616 5.28901 14.5837 5.24398 14.5926C5.19895 14.6016 5.15227 14.597 5.10986 14.5794C5.06744 14.5618 5.03118 14.5321 5.00568 14.4939C4.98017 14.4557 4.96655 14.4109 4.96655 14.365C4.96655 14.3034 4.99101 14.2443 5.03454 14.2008C5.07808 14.1573 5.13712 14.1328 5.19869 14.1328" stroke="white" stroke-width="0.89435" stroke-linecap="round" stroke-linejoin="round"/>
<path d="M11.6852 10.355H4.21287C3.79878 10.355 3.39659 10.2165 3.0702 9.96172C2.74382 9.70689 2.51196 9.35029 2.41148 8.94859L1.51388 5.35819C1.49675 5.28972 1.49546 5.21824 1.5101 5.1492C1.52475 5.08015 1.55494 5.01535 1.59839 4.95973C1.64184 4.9041 1.6974 4.85912 1.76084 4.82819C1.82429 4.79726 1.89395 4.78121 1.96453 4.78125H12.633" stroke="white" stroke-width="0.89435" stroke-linecap="round" stroke-linejoin="round"/>
</svg>
