<svg width="24" height="25" viewBox="0 0 24 25" fill="none" xmlns="http://www.w3.org/2000/svg">
<path fill-rule="evenodd" clip-rule="evenodd" d="M9.45169 12.2628L8.56836 15.7986L12.1034 14.9145L17.4067 9.61114L14.755 6.95947L9.45169 12.2628Z" stroke="black" stroke-width="1.5" stroke-linecap="round" stroke-linejoin="round"/>
<path d="M20.5008 6.51776L21.3842 7.40109C21.6188 7.63554 21.7506 7.9536 21.7506 8.28526C21.7506 8.61692 21.6188 8.93498 21.3842 9.16943L18.625 11.9278" stroke="black" stroke-width="1.5" stroke-linecap="round" stroke-linejoin="round"/>
<path d="M17.4067 9.6111L20.5008 6.51777C20.7354 6.28333 20.8672 5.96526 20.8672 5.63361C20.8672 5.30195 20.7354 4.98388 20.5008 4.74944L19.6167 3.86611C19.1285 3.37813 18.3373 3.37813 17.8492 3.86611L14.755 6.95861" stroke="black" stroke-width="1.5" stroke-linecap="round" stroke-linejoin="round"/>
<path d="M19.2508 14.1253V16.732C19.2508 17.0637 19.1189 17.3817 18.8842 17.6161L14.6167 21.8836C14.3823 22.1183 14.0642 22.2502 13.7325 22.2503H4.25C3.55964 22.2503 3 21.6907 3 21.0003V4.75031C3 4.05995 3.55964 3.50031 4.25 3.50031H13.625" stroke="black" stroke-width="1.5" stroke-linecap="round" stroke-linejoin="round"/>
<path d="M14.2509 22.1377V18.5002C14.2509 17.8099 14.8105 17.2502 15.5009 17.2502H19.1384" stroke="black" stroke-width="1.5" stroke-linecap="round" stroke-linejoin="round"/>
</svg>
