<svg width="24" height="24" viewBox="0 0 24 24" fill="none" xmlns="http://www.w3.org/2000/svg">
<g clip-path="url(#clip0_1052_106)">
<path d="M2 16.6673C2.00068 15.6754 2.24715 14.6991 2.71738 13.8257C3.18762 12.9523 3.86696 12.2091 4.69466 11.6625C5.52236 11.1158 6.47262 10.7828 7.46049 10.6932C8.44835 10.6036 9.44302 10.7603 10.3556 11.1491" stroke="black" stroke-width="1.2" stroke-linecap="round" stroke-linejoin="round"/>
<path d="M4.8396 3.80615C5.4075 4.39495 6.08824 4.86324 6.84118 5.18304C7.59411 5.50285 8.40378 5.66761 9.22182 5.66749C10.0508 5.66805 10.8711 5.49926 11.6325 5.17149" stroke="black" stroke-width="1.2" stroke-linecap="round" stroke-linejoin="round"/>
<path d="M7.99992 9.33333C10.025 9.33333 11.6666 7.69171 11.6666 5.66667C11.6666 3.64162 10.025 2 7.99992 2C5.97487 2 4.33325 3.64162 4.33325 5.66667C4.33325 7.69171 5.97487 9.33333 7.99992 9.33333Z" stroke="black" stroke-width="1.2" stroke-linecap="round" stroke-linejoin="round"/>
<path d="M16.6666 21.9999C19.6121 21.9999 21.9999 19.6121 21.9999 16.6666C21.9999 13.7211 19.6121 11.3333 16.6666 11.3333C13.7211 11.3333 11.3333 13.7211 11.3333 16.6666C11.3333 19.6121 13.7211 21.9999 16.6666 21.9999Z" stroke="black" stroke-width="1.2" stroke-linecap="round" stroke-linejoin="round"/>
<path d="M15 15.6667C15 15.337 15.0977 15.0148 15.2809 14.7407C15.464 14.4666 15.7243 14.253 16.0289 14.1269C16.3334 14.0007 16.6685 13.9677 16.9918 14.032C17.3151 14.0963 17.6121 14.2551 17.8452 14.4882C18.0783 14.7212 18.237 15.0182 18.3013 15.3415C18.3656 15.6648 18.3326 15.9999 18.2065 16.3045C18.0803 16.609 17.8667 16.8693 17.5926 17.0524C17.3185 17.2356 16.9963 17.3333 16.6667 17.3333" stroke="black" stroke-width="1.2" stroke-linecap="round" stroke-linejoin="round"/>
<path d="M16.6666 19.3333C16.6007 19.3333 16.5362 19.3528 16.4814 19.3894C16.4266 19.4261 16.3839 19.4781 16.3586 19.539C16.3334 19.5999 16.3268 19.667 16.3397 19.7316C16.3525 19.7963 16.3843 19.8557 16.4309 19.9023C16.4775 19.9489 16.5369 19.9807 16.6016 19.9935C16.6662 20.0064 16.7332 19.9998 16.7941 19.9745C16.8551 19.9493 16.9071 19.9066 16.9437 19.8518C16.9804 19.797 16.9999 19.7325 16.9999 19.6666C17 19.6228 16.9915 19.5794 16.9748 19.5389C16.9581 19.4984 16.9335 19.4616 16.9025 19.4306C16.8716 19.3996 16.8348 19.3751 16.7943 19.3584C16.7538 19.3417 16.7104 19.3331 16.6666 19.3333" stroke="black" stroke-width="1.2" stroke-linecap="round" stroke-linejoin="round"/>
</g>
<defs>
<clipPath id="clip0_1052_106">
<rect width="22" height="22" fill="white" transform="translate(1 1)"/>
</clipPath>
</defs>
</svg>
