<svg width="22" height="22" viewBox="0 0 22 22" fill="none" xmlns="http://www.w3.org/2000/svg">
<path fill-rule="evenodd" clip-rule="evenodd" d="M10.1137 2.83719C10.2835 2.50271 10.6269 2.29199 11.002 2.29199C11.3771 2.29199 11.7205 2.50271 11.8903 2.83719L13.9523 6.99772C14.0976 7.28691 14.3755 7.48641 14.696 7.53154L19.3271 8.20187C19.6955 8.25403 20.003 8.50946 20.1218 8.86202C20.2373 9.21457 20.1416 9.60214 19.8752 9.86038L16.5134 13.1203C16.2842 13.3426 16.179 13.6634 16.2322 13.9781L17.0248 18.5726C17.0879 18.9395 16.934 19.3099 16.6295 19.5241C16.3233 19.7414 15.9213 19.7689 15.5884 19.5955L11.4645 17.4378C11.1746 17.287 10.8294 17.287 10.5395 17.4378L6.41564 19.5955C6.0827 19.7689 5.68066 19.7414 5.37448 19.5241C5.07001 19.3099 4.91614 18.9395 4.97921 18.5726L5.77179 13.9781C5.82495 13.6634 5.71981 13.3426 5.49062 13.1203L2.12878 9.86038C1.86241 9.60214 1.7667 9.21457 1.88225 8.86202C2.00063 8.50918 2.3083 8.25358 2.67686 8.20187L7.30602 7.53154C7.62724 7.48704 7.90605 7.28745 8.05173 6.99772L10.1137 2.83719Z" stroke="#4A4A4A" stroke-width="1.30625" stroke-linecap="round" stroke-linejoin="round"/>
</svg>
