<svg width="360" height="196" viewBox="0 0 360 196" fill="none" xmlns="http://www.w3.org/2000/svg">
<rect width="360" height="196" fill="#A8DFBD"/>
<path d="M108.226 52.2742L171.025 32.2117C172.632 31.6978 174.347 32.6006 174.834 34.2186L203.545 129.75C204.018 131.32 203.15 132.976 201.594 133.486L139.167 153.889C137.559 154.413 135.834 153.514 135.344 151.896L106.257 56.0242C105.778 54.4479 106.656 52.7777 108.226 52.2742Z" fill="white"/>
<path d="M137.98 143.302L157.099 136.948" stroke="#1FBA68" stroke-width="0.694446" stroke-miterlimit="10"/>
<path d="M136.325 138.319L188.877 120.854" stroke="#1FBA68" stroke-width="0.694446" stroke-miterlimit="10"/>
<path d="M135.109 133.246L187.661 115.781" stroke="#1FBA68" stroke-width="0.694446" stroke-miterlimit="10"/>
<path d="M133.583 128.386L175.663 114.403" stroke="#1FBA68" stroke-width="0.694446" stroke-miterlimit="10"/>
<path d="M131.99 123.618L184.546 106.153" stroke="#1FBA68" stroke-width="0.694446" stroke-miterlimit="10"/>
<path d="M130.334 118.635L182.89 101.17" stroke="#1FBA68" stroke-width="0.694446" stroke-miterlimit="10"/>
<path d="M129.124 113.562L181.676 96.0969" stroke="#1FBA68" stroke-width="0.694446" stroke-miterlimit="10"/>
<path d="M127.598 108.701L169.321 94.8367" stroke="#1FBA68" stroke-width="0.694446" stroke-miterlimit="10"/>
<path d="M126.298 102.962L178.854 85.4932" stroke="#1FBA68" stroke-width="0.694446" stroke-miterlimit="10"/>
<path d="M124.644 97.9793L177.2 80.5105" stroke="#1FBA68" stroke-width="0.694446" stroke-miterlimit="10"/>
<path d="M123.432 92.906L175.984 75.4373" stroke="#1FBA68" stroke-width="0.694446" stroke-miterlimit="10"/>
<path d="M121.907 88.0449L168.157 72.6733" stroke="#1FBA68" stroke-width="0.694446" stroke-miterlimit="10"/>
<path d="M121.601 82.3955L174.153 64.9302" stroke="#1FBA68" stroke-width="0.694446" stroke-miterlimit="10"/>
<path d="M119.947 77.4131L172.499 59.9478" stroke="#1FBA68" stroke-width="0.694446" stroke-miterlimit="10"/>
<path d="M118.731 72.3401L171.283 54.8748" stroke="#1FBA68" stroke-width="0.694446" stroke-miterlimit="10"/>
<path d="M117.209 67.479L169.761 50.0137" stroke="#1FBA68" stroke-width="0.694446" stroke-miterlimit="10"/>
<path d="M219.086 129.048L245.331 104.533L229.647 87.9887L203.401 112.504L219.086 129.048Z" fill="#1FBA68"/>
<g style="mix-blend-mode:multiply">
<path d="M204.12 113.266L225.675 93.1994C227.913 94.9061 231.005 94.9897 233.328 93.4044L240.122 100.57C238.415 102.804 238.332 105.9 239.917 108.223L218.362 128.289L219.084 129.051L240.571 109.049L245.33 104.539L243.946 103.08L231.025 89.4515L229.641 87.9926L203.396 112.508L204.118 113.27L204.12 113.266Z" fill="#E2BB3C"/>
</g>
<path d="M224.112 93.1516L202.334 113.502L218.018 130.047L239.797 109.699L224.112 93.1516Z" fill="#1FBA68"/>
<g style="mix-blend-mode:multiply">
<path d="M239.108 108.974L221.987 124.839C219.749 123.132 216.657 123.049 214.334 124.634L207.54 117.468C209.248 115.234 209.33 112.139 207.745 109.816L224.859 93.9388L224.111 93.1516L207.088 108.991L202.329 113.5L203.713 114.959L216.634 128.588L218.018 130.047L239.796 109.696L239.104 108.972L239.108 108.974Z" fill="#E2BB3C"/>
</g>
<path d="M229.975 115.097C233.734 112.232 234.459 106.861 231.594 103.101C228.728 99.3418 223.358 98.617 219.598 101.482C215.839 104.348 215.114 109.718 217.979 113.478C220.845 117.237 226.215 117.962 229.975 115.097Z" fill="#31C972"/>
<path d="M225.792 103.906L226.117 104.67L220.94 109.283L220.609 108.524L225.792 103.906ZM229.315 111.472L223.186 110.82L222.741 110.332L223.688 109.488C224.151 109.075 224.462 108.652 224.621 108.219C224.78 107.786 224.82 107.367 224.739 106.961C224.658 106.556 224.481 106.2 224.208 105.893C223.88 105.523 223.508 105.278 223.093 105.158C222.678 105.037 222.238 105.049 221.771 105.192C221.302 105.332 220.826 105.618 220.342 106.049L219.162 107.1L218.843 106.331L219.82 105.46C220.443 104.905 221.062 104.526 221.676 104.323C222.287 104.117 222.869 104.092 223.423 104.248C223.98 104.4 224.488 104.733 224.944 105.247C225.316 105.665 225.565 106.136 225.693 106.658C225.821 107.173 225.779 107.718 225.566 108.292C225.354 108.858 224.922 109.432 224.271 110.012L230.101 110.642L230.165 110.714L229.315 111.472ZM223.924 101.803L224.249 102.567L219.605 106.705L219.281 105.941L223.924 101.803Z" fill="white"/>
<path d="M220.365 102.047L236.305 69.8636L215.802 59.8968L199.862 92.0798L220.365 102.047Z" fill="#1FBA68"/>
<g style="mix-blend-mode:multiply">
<path d="M200.806 92.5393L213.922 66.1711C216.617 66.9811 219.54 65.9713 221.157 63.67L230.038 67.9864C229.226 70.6788 230.238 73.6052 232.539 75.2217L219.424 101.59L220.368 102.049L233.442 75.7648L236.31 69.8692L234.501 68.9906L217.611 60.7803L215.802 59.9017L199.862 92.0847L200.806 92.5442L200.806 92.5393Z" fill="#E2BB3C"/>
</g>
<path d="M212.439 66.6762L199.215 93.389L219.718 103.356L232.944 76.6458L212.439 66.6762Z" fill="#1FBA68"/>
<g style="mix-blend-mode:multiply">
<path d="M232.045 76.2097L221.602 97.0845C218.906 96.2745 215.983 97.2843 214.366 99.5856L205.485 95.2692C206.297 92.5768 205.285 89.6504 202.984 88.0338L213.416 67.1501L212.44 66.6763L202.079 87.4928L199.211 93.3885L201.02 94.2671L217.91 102.477L219.719 103.356L232.943 76.6432L232.04 76.2091L232.045 76.2097Z" fill="#E2BB3C"/>
</g>
<path d="M225.654 85.1543C228.164 81.1492 226.953 75.867 222.948 73.3563C218.943 70.8455 213.661 72.057 211.15 76.0621C208.639 80.0672 209.85 85.3493 213.856 87.8601C217.861 90.3708 223.143 89.1594 225.654 85.1543Z" fill="#31C972"/>
<path d="M217.798 76.1511L218.371 76.7522L215.149 82.8919L214.572 82.2979L217.798 76.1511ZM223.758 81.9937L217.792 83.5405L217.204 83.2398L217.793 82.117C218.082 81.5675 218.224 81.0619 218.22 80.6004C218.217 80.139 218.106 79.7328 217.888 79.382C217.669 79.0313 217.379 78.7602 217.015 78.5688C216.578 78.3382 216.143 78.2395 215.713 78.2726C215.282 78.3057 214.873 78.4715 214.488 78.7702C214.097 79.0666 213.752 79.5014 213.451 80.0746L212.716 81.4745L212.147 80.8663L212.755 79.708C213.143 78.9689 213.589 78.3964 214.092 77.9905C214.591 77.5822 215.128 77.3537 215.701 77.3049C216.276 77.2514 216.869 77.3848 217.477 77.7053C217.972 77.9659 218.371 78.3182 218.674 78.7622C218.975 79.1991 219.128 79.7237 219.13 80.3359C219.131 80.9411 218.929 81.6298 218.524 82.402L224.202 80.9397L224.288 80.9846L223.758 81.9937ZM215.31 74.8403L215.883 75.4414L212.992 80.9486L212.419 80.3475L215.31 74.8403Z" fill="white"/>
<g style="mix-blend-mode:multiply" opacity="0.1">
<path d="M161.772 130.239C160.376 130.541 159.15 130.972 158.077 131.458C157.532 131.284 156.817 130.896 156.018 130.378C155.4 130.913 154.768 131.43 154.115 131.923C152.983 132.781 151.674 133.715 150.275 134.257C150.869 134.92 151.518 135.528 152.261 135.892C152.206 135.968 152.174 136.014 152.174 136.014C152.174 136.014 148.928 136.534 147.813 138.312C147.813 138.312 146.494 138.392 145.258 138.962V148.312H145.379V155.51C145.904 155.132 146.435 154.739 146.97 154.319C149.976 151.979 153.046 149.059 154.897 145.875C157.82 140.85 159.99 141.764 161.376 139.361C162.921 137.784 163.275 136.403 166.688 134.448C168.529 133.396 166.351 129.239 161.768 130.232L161.772 130.239Z" fill="black"/>
</g>
<g style="mix-blend-mode:multiply" opacity="0.1">
<path d="M219.153 59.4927H150.306C147.579 59.4927 145.368 61.7033 145.368 64.4302V166.371C145.368 169.098 147.579 171.309 150.306 171.309H219.153C221.88 171.309 224.091 169.098 224.091 166.371V64.4302C224.091 61.7033 221.88 59.4927 219.153 59.4927Z" fill="black"/>
</g>
<path d="M219.153 57.3362H150.306C147.579 57.3362 145.368 59.5468 145.368 62.2737V164.215C145.368 166.942 147.579 169.152 150.306 169.152H219.153C221.88 169.152 224.091 166.942 224.091 164.215V62.2737C224.091 59.5468 221.88 57.3362 219.153 57.3362Z" fill="black"/>
<path d="M219.536 61.3782H149.928V165.118H219.536V61.3782Z" fill="white"/>
<path d="M210.405 93.0341C210.405 93.4195 210.398 93.8015 210.377 94.18H200.513C200.54 93.8015 200.554 93.4195 200.554 93.0341C200.554 89.0202 199.068 85.3501 196.613 82.548L203.589 75.5723C207.818 80.166 210.405 86.298 210.405 93.0341Z" fill="#20A15C"/>
<path d="M168.707 93.0346C168.707 93.42 168.721 93.8019 168.749 94.1804H158.884C158.863 93.8019 158.856 93.42 158.856 93.0346C158.856 86.1248 161.578 79.847 166.009 75.2151L172.978 82.1839C170.325 85.0276 168.707 88.8436 168.707 93.0346Z" fill="#F0323C"/>
<path d="M184.978 67.2635V77.1142C184.863 77.1107 184.748 77.1107 184.63 77.1107C180.03 77.1107 175.884 79.0621 172.978 82.1837L166.009 75.2149C170.7 70.3156 177.307 67.26 184.63 67.26C184.745 67.26 184.863 67.26 184.978 67.2635Z" fill="#F7812F"/>
<path d="M203.589 75.5727L196.613 82.5484C193.766 79.2984 189.617 77.2151 184.978 77.1144V67.2637C192.335 67.3609 198.95 70.5415 203.589 75.5727Z" fill="#F7CB2F"/>
<path d="M184.717 94.767C186.13 94.767 187.276 93.6213 187.276 92.208C187.276 90.7946 186.13 89.6489 184.717 89.6489C183.304 89.6489 182.158 90.7946 182.158 92.208C182.158 93.6213 183.304 94.767 184.717 94.767Z" fill="#033418"/>
<path d="M212.866 93.0347H156.567V94.7708H212.866V93.0347Z" fill="#1FBA68"/>
<path d="M184.718 91.2222L207.212 80.5972L184.979 93.0347L184.718 91.2222Z" fill="#033418"/>
<path d="M212.602 98.0242H170.338V101.521H212.602V98.0242Z" fill="#1FBA68"/>
<path d="M212.602 104.382H170.338V107.878H212.602V104.382Z" fill="#A9E3C2"/>
<path d="M212.604 110.739H156.492V114.236H212.604V110.739Z" fill="#A9E3C2"/>
<path d="M170.37 61.3782C170.391 62.3539 171.186 63.1386 172.169 63.1386H197.294C198.277 63.1386 199.072 62.3539 199.093 61.3782H170.374H170.37Z" fill="black"/>
<path d="M197.292 52.4926H188.615C188.615 50.3468 186.876 48.6072 184.73 48.6072C182.584 48.6072 180.844 50.3468 180.844 52.4926H172.167C171.171 52.4926 170.365 53.2982 170.365 54.2947V60.3815C170.365 61.378 171.171 62.1836 172.167 62.1836H197.292C198.289 62.1836 199.094 61.378 199.094 60.3815V54.2947C199.094 53.2982 198.289 52.4926 197.292 52.4926ZM184.73 54.0204C183.886 54.0204 183.202 53.3364 183.202 52.4926C183.202 51.6488 183.886 50.9648 184.73 50.9648C185.573 50.9648 186.257 51.6488 186.257 52.4926C186.257 53.3364 185.573 54.0204 184.73 54.0204Z" fill="black"/>
<path d="M170.365 58.7703V60.3814C170.365 61.3779 171.171 62.1835 172.167 62.1835H197.292C198.289 62.1835 199.094 61.3779 199.094 60.3814V58.7703H170.365Z" fill="#737373"/>
<path d="M165.795 99.4131V106.493H157.881V99.4131H165.795ZM167.183 98.0242H156.492V107.882H167.183V98.0242Z" fill="#A9E3C2"/>
<path d="M212.602 120.118H170.338V123.614H212.602V120.118Z" fill="#1FBA68"/>
<path d="M212.602 126.476H170.338V129.972H212.602V126.476Z" fill="#A9E3C2"/>
<path d="M212.604 132.833H156.492V136.33H212.604V132.833Z" fill="#A9E3C2"/>
<path d="M165.795 121.507V128.586H157.881V121.507H165.795ZM167.183 120.118H156.492V129.975H167.183V120.118Z" fill="white"/>
<path d="M212.604 142.211H156.492V145.652H212.604V142.211Z" fill="#1FBA68"/>
<path d="M180.486 149.135V156.909H157.534V149.135H180.486ZM181.527 148.094H156.492V157.951H181.527V148.094Z" fill="#A9E3C2"/>
<path d="M211.564 149.135V156.909H188.612V149.135H211.564ZM212.606 148.094H187.571V157.951H212.606V148.094Z" fill="#A9E3C2"/>
<path d="M168.118 98.3708L161.816 104.673L158.531 101.385" stroke="#20A15C" stroke-width="2.11112" stroke-linecap="round" stroke-linejoin="round"/>
<path d="M168.118 120.118L161.816 126.42L158.531 123.132" stroke="#20A15C" stroke-width="2.11112" stroke-linecap="round" stroke-linejoin="round"/>
<path d="M243.077 34.4929C242.803 34.4721 242.529 34.4617 242.258 34.4617C239.845 34.4617 237.532 35.3124 235.678 36.8957C233.612 38.6561 232.355 41.1179 232.14 43.8263C231.925 46.5346 232.779 49.1631 234.539 51.2291C236.303 53.295 238.761 54.552 241.47 54.7673C244.182 54.9791 246.807 54.1284 248.873 52.368C250.939 50.6075 252.195 48.1457 252.411 45.4374C252.855 39.8506 248.668 34.9408 243.081 34.4999L243.077 34.4929Z" fill="#EC6D00"/>
<path d="M243.098 34.2257C237.351 33.7709 232.323 38.0591 231.868 43.8021C231.414 49.5452 235.702 54.5765 241.445 55.0313C247.191 55.4862 252.219 51.198 252.674 45.4549C253.129 39.7084 248.841 34.6806 243.098 34.2257ZM252.407 45.4341C252.191 48.1424 250.934 50.6008 248.869 52.3647C246.803 54.1251 244.178 54.9792 241.466 54.764C238.757 54.5487 236.299 53.2917 234.535 51.2258C232.775 49.1598 231.921 46.5313 232.136 43.823C232.351 41.1146 233.608 38.6563 235.674 36.8924C237.532 35.3091 239.841 34.4584 242.254 34.4584C242.525 34.4584 242.799 34.4688 243.073 34.4896C248.66 34.934 252.848 39.8403 252.403 45.4271L252.407 45.4341Z" fill="#F7812F"/>
<path d="M243.099 34.2256C240.321 34.0034 237.623 34.8784 235.501 36.6874C233.38 38.4964 232.092 41.0242 231.869 43.802C231.647 46.5798 232.522 49.2777 234.331 51.3992C236.14 53.5208 238.668 54.809 241.446 55.0312C241.727 55.0555 242.008 55.0659 242.289 55.0659C244.769 55.0659 247.14 54.1944 249.043 52.5694C251.164 50.7603 252.453 48.2326 252.675 45.4548C253.13 39.7186 248.835 34.6804 243.099 34.2256ZM252.154 45.4131C251.946 48.052 250.72 50.4513 248.706 52.1701C246.692 53.8888 244.133 54.7187 241.491 54.5103C238.852 54.302 236.453 53.0763 234.734 51.0624C233.015 49.0485 232.185 46.486 232.394 43.8471C232.602 41.2082 233.828 38.8089 235.842 37.0902C237.651 35.545 239.904 34.7186 242.258 34.7186C242.522 34.7186 242.789 34.7291 243.057 34.7499C248.505 35.1839 252.585 39.9652 252.151 45.4131H252.154Z" fill="#EC6D00"/>
<path opacity="0.3" d="M246.337 52.5023C250.687 50.2561 252.393 44.9088 250.146 40.5587C247.9 36.2086 242.553 34.5031 238.203 36.7493C233.853 38.9955 232.147 44.3429 234.393 48.6929C236.64 53.043 241.987 54.7486 246.337 52.5023Z" fill="white"/>
<path opacity="0.3" d="M233.717 44.2081C234.106 39.3261 238.376 35.6837 243.255 36.0726C245.342 36.2393 247.199 37.1178 248.616 38.4511C247.168 36.9615 245.203 35.9685 242.97 35.7914C238.088 35.4025 233.817 39.0483 233.432 43.9268C233.21 46.7185 234.31 49.3088 236.206 51.09C234.487 49.3227 233.505 46.8608 233.717 44.2115V44.2081Z" fill="white"/>
<path opacity="0.3" d="M248.36 38.1909C250.11 39.9618 251.11 42.4479 250.899 45.1215C250.51 50.0034 246.239 53.6458 241.36 53.2569C239.26 53.0903 237.392 52.2014 235.971 50.8576C237.412 52.3159 239.364 53.2916 241.569 53.4653C246.451 53.8541 250.721 50.2083 251.107 45.3298C251.329 42.5486 250.239 39.9687 248.36 38.1909Z" fill="white"/>
<path d="M245.593 42.4388L245.352 43.1317L239.226 43.0762L239.46 42.3833L245.593 42.4388ZM243.406 49.4811L239.783 45.4156L239.782 44.832L240.902 44.8421C241.45 44.8471 241.905 44.7551 242.266 44.566C242.628 44.3769 242.902 44.1259 243.09 43.8128C243.278 43.4998 243.373 43.1618 243.377 42.799C243.382 42.3619 243.284 41.9807 243.084 41.6554C242.885 41.3301 242.589 41.0761 242.199 40.8934C241.809 40.7062 241.327 40.6101 240.755 40.6049L239.359 40.5922L239.607 39.8994L240.763 39.9099C241.5 39.9166 242.13 40.0359 242.652 40.268C243.175 40.4956 243.571 40.8249 243.84 41.2557C244.115 41.6866 244.249 42.2059 244.242 42.8134C244.237 43.3074 244.121 43.7631 243.894 44.1807C243.673 44.594 243.322 44.9253 242.841 45.1745C242.366 45.4193 241.743 45.5383 240.973 45.5313L244.413 49.405L244.413 49.4902L243.406 49.4811ZM245.62 39.9539L245.378 40.6467L239.883 40.597L240.125 39.9041L245.62 39.9539Z" fill="white"/>
<path d="M109.751 66.5295C109.477 66.5087 109.203 66.4983 108.932 66.4983C106.519 66.4983 104.206 67.349 102.352 68.9323C100.286 70.6927 99.029 73.1546 98.8137 75.8629C98.5984 78.5712 99.4526 81.1997 101.213 83.2657C102.977 85.3317 105.435 86.5886 108.144 86.8039C110.855 87.0157 113.48 86.165 115.546 84.4046C117.612 82.6442 118.869 80.1824 119.085 77.474C119.529 71.8872 115.341 66.9775 109.755 66.5365L109.751 66.5295Z" fill="#EC6D00"/>
<path d="M109.771 66.2623C104.025 65.8075 98.9972 70.0957 98.5423 75.8387C98.0874 81.5818 102.376 86.6131 108.119 87.0679C113.865 87.5228 118.893 83.2346 119.348 77.4915C119.803 71.745 115.515 66.7172 109.771 66.2623ZM119.081 77.4707C118.865 80.179 117.608 82.6374 115.542 84.4013C113.476 86.1617 110.851 87.0159 108.14 86.8006C105.431 86.5853 102.973 85.3284 101.209 83.2624C99.4486 81.1964 98.5944 78.5679 98.8097 75.8596C99.0249 73.1512 100.282 70.6929 102.348 68.929C104.206 67.3457 106.515 66.495 108.928 66.495C109.199 66.495 109.473 66.5054 109.747 66.5262C115.334 66.9707 119.522 71.8769 119.077 77.4638L119.081 77.4707Z" fill="#F7812F"/>
<path d="M109.772 66.2622C106.995 66.04 104.297 66.915 102.175 68.724C100.054 70.533 98.7654 73.0608 98.5431 75.8386C98.3209 78.6164 99.1959 81.3143 101.005 83.4359C102.814 85.5574 105.342 86.8456 108.12 87.0678C108.401 87.0921 108.682 87.1025 108.963 87.1025C111.442 87.1025 113.814 86.231 115.717 84.606C117.838 82.797 119.127 80.2692 119.349 77.4914C119.804 71.7553 115.508 66.7171 109.772 66.2622ZM118.828 77.4497C118.62 80.0886 117.394 82.4879 115.38 84.2067C113.366 85.9254 110.807 86.7553 108.165 86.547C105.526 86.3386 103.126 85.1129 101.408 83.099C99.689 81.0852 98.8591 78.5226 99.0674 75.8838C99.2758 73.2449 100.501 70.8455 102.515 69.1268C104.324 67.5816 106.578 66.7553 108.932 66.7553C109.196 66.7553 109.463 66.7657 109.731 66.7865C115.179 67.2205 119.258 72.0018 118.824 77.4497H118.828Z" fill="#EC6D00"/>
<path opacity="0.3" d="M113.011 84.539C117.361 82.2928 119.066 76.9454 116.82 72.5953C114.574 68.2452 109.227 66.5397 104.877 68.7859C100.526 71.0321 98.8209 76.3795 101.067 80.7296C103.313 85.0796 108.661 86.7852 113.011 84.539Z" fill="white"/>
<path opacity="0.3" d="M100.39 76.2447C100.779 71.3627 105.05 67.7204 109.929 68.1092C112.016 68.2759 113.873 69.1544 115.29 70.4877C113.842 68.9981 111.877 68.0051 109.644 67.828C104.762 67.4391 100.491 71.0849 100.106 75.9634C99.8835 78.7551 100.984 81.3454 102.88 83.1266C101.161 81.3593 100.179 78.8975 100.39 76.2482V76.2447Z" fill="white"/>
<path opacity="0.3" d="M115.034 70.2271C116.784 71.9979 117.784 74.484 117.572 77.1576C117.184 82.0396 112.913 85.6819 108.034 85.2931C105.933 85.1264 104.065 84.2375 102.645 82.8937C104.086 84.3521 106.038 85.3278 108.243 85.5014C113.124 85.8903 117.395 82.2444 117.781 77.366C118.003 74.5847 116.913 72.0048 115.034 70.2271Z" fill="white"/>
<path d="M112.267 74.4749L112.026 75.1678L105.9 75.1123L106.134 74.4194L112.267 74.4749ZM110.079 81.5172L106.456 77.4517L106.456 76.8681L107.576 76.8783C108.124 76.8832 108.579 76.7912 108.94 76.6021C109.302 76.413 109.576 76.162 109.764 75.8489C109.951 75.5359 110.047 75.198 110.051 74.8352C110.056 74.3981 109.958 74.0169 109.758 73.6916C109.558 73.3663 109.263 73.1123 108.873 72.9295C108.482 72.7423 108.001 72.6462 107.429 72.641L106.032 72.6284L106.281 71.9355L107.437 71.946C108.174 71.9527 108.804 72.0721 109.326 72.3041C109.848 72.5318 110.244 72.861 110.514 73.2919C110.788 73.7228 110.922 74.242 110.916 74.8496C110.911 75.3435 110.795 75.7993 110.568 76.2169C110.346 76.6302 109.995 76.9614 109.515 77.2106C109.04 77.4555 108.417 77.5744 107.647 77.5674L111.087 81.4411L111.086 81.5263L110.079 81.5172ZM112.294 71.99L112.052 72.6829L106.557 72.6331L106.798 71.9402L112.294 71.99Z" fill="white"/>
<path d="M159.78 28.1785C159.557 28.1616 159.334 28.1531 159.113 28.1531C157.149 28.1531 155.267 28.8456 153.757 30.1344C152.076 31.5674 151.052 33.5713 150.877 35.776C150.702 37.9806 151.397 40.1202 152.83 41.8019C154.266 43.4836 156.267 44.5068 158.472 44.682C160.679 44.8544 162.816 44.162 164.498 42.729C166.18 41.296 167.203 39.292 167.378 37.0874C167.74 32.5397 164.331 28.5431 159.783 28.1842L159.78 28.1785Z" fill="#EC6D00"/>
<path d="M159.798 27.9608C155.121 27.5905 151.028 31.0811 150.658 35.7561C150.287 40.431 153.778 44.5265 158.453 44.8967C163.131 45.267 167.223 41.7764 167.594 37.1014C167.964 32.4237 164.473 28.331 159.798 27.9608ZM167.376 37.0845C167.201 39.2891 166.178 41.2902 164.496 42.726C162.814 44.159 160.677 44.8543 158.47 44.6791C156.265 44.5039 154.264 43.4807 152.828 41.799C151.395 40.1172 150.7 37.9776 150.875 35.773C151.05 33.5684 152.074 31.5673 153.755 30.1315C155.268 28.8426 157.147 28.1501 159.111 28.1501C159.332 28.1501 159.555 28.1586 159.778 28.1756C164.326 28.5374 167.735 32.5311 167.373 37.0788L167.376 37.0845Z" fill="#F7812F"/>
<path d="M159.799 27.9607C157.538 27.7798 155.342 28.4921 153.615 29.9647C151.888 31.4372 150.839 33.4949 150.658 35.756C150.477 38.0172 151.19 40.2133 152.662 41.9402C154.135 43.6672 156.192 44.7158 158.454 44.8967C158.683 44.9165 158.911 44.9249 159.14 44.9249C161.158 44.9249 163.089 44.2155 164.638 42.8927C166.365 41.4202 167.413 39.3625 167.594 37.1014C167.965 32.4321 164.468 28.331 159.799 27.9607ZM167.17 37.0675C167.001 39.2156 166.003 41.1686 164.364 42.5677C162.724 43.9668 160.641 44.6423 158.49 44.4727C156.342 44.3031 154.389 43.3054 152.99 41.6661C151.591 40.0267 150.915 37.9408 151.085 35.7928C151.255 33.6447 152.252 31.6916 153.892 30.2925C155.364 29.0348 157.199 28.3621 159.115 28.3621C159.33 28.3621 159.547 28.3706 159.765 28.3875C164.2 28.7408 167.521 32.6328 167.167 37.0675H167.17Z" fill="#EC6D00"/>
<path opacity="0.3" d="M162.435 42.8381C165.976 41.0097 167.364 36.6569 165.536 33.1159C163.708 29.5749 159.355 28.1866 155.814 30.015C152.273 31.8434 150.884 36.1962 152.713 39.7373C154.541 43.2783 158.894 44.6666 162.435 42.8381Z" fill="white"/>
<path opacity="0.3" d="M152.162 36.0868C152.479 32.1129 155.955 29.1479 159.926 29.4645C161.625 29.6002 163.137 30.3152 164.29 31.4006C163.112 30.1881 161.512 29.3797 159.695 29.2355C155.721 28.919 152.244 31.8867 151.931 35.8579C151.75 38.1303 152.646 40.2388 154.189 41.6888C152.79 40.2501 151.99 38.2462 152.162 36.0896V36.0868Z" fill="white"/>
<path opacity="0.3" d="M164.084 31.1885C165.509 32.63 166.323 34.6537 166.15 36.83C165.834 40.804 162.357 43.7689 158.386 43.4524C156.676 43.3167 155.156 42.5931 154 41.4993C155.173 42.6864 156.761 43.4806 158.556 43.6219C162.53 43.9385 166.006 40.9707 166.32 36.9996C166.501 34.7356 165.613 32.6356 164.084 31.1885Z" fill="white"/>
<path d="M160.754 33.6953L160.827 34.2881L156.333 36.4503L156.255 35.8601L160.754 33.6953ZM161.688 39.6248L157.58 37.9586L157.37 37.5327L158.192 37.1373C158.594 36.9438 158.893 36.713 159.089 36.445C159.285 36.1771 159.395 35.895 159.419 35.5989C159.444 35.3028 159.392 35.0216 159.265 34.7553C159.111 34.4344 158.903 34.1911 158.64 34.0254C158.377 33.8597 158.07 33.7803 157.719 33.7872C157.367 33.7909 156.981 33.8937 156.561 34.0956L155.536 34.5886L155.469 33.9933L156.317 33.5854C156.858 33.3251 157.36 33.1858 157.825 33.1675C158.289 33.1459 158.696 33.244 159.048 33.4617C159.403 33.6777 159.688 34.0087 159.902 34.4548C160.075 34.8174 160.155 35.1919 160.139 35.5783C160.126 35.9599 159.989 36.328 159.728 36.6826C159.469 37.0324 159.056 37.3432 158.491 37.6152L162.397 39.2069L162.427 39.2695L161.688 39.6248ZM159.879 31.8711L159.952 32.4639L155.921 34.4034L155.849 33.8106L159.879 31.8711Z" fill="white"/>
<path d="M253.274 89.2255C253.063 89.1665 252.847 89.1179 252.632 89.0797C250.733 88.7221 248.788 89.0485 247.094 90.0172C245.208 91.0971 243.854 92.8471 243.285 94.9478C242.715 97.045 242.997 99.2429 244.077 101.128C245.156 103.014 246.91 104.368 249.007 104.941C251.111 105.51 253.302 105.229 255.188 104.149C257.073 103.069 258.427 101.319 258.997 99.2186C260.174 94.8853 257.608 90.4026 253.274 89.2255Z" fill="#FEC008"/>
<path d="M253.329 89.0174C248.874 87.8056 244.284 90.4375 243.072 94.8924C241.86 99.3473 244.492 103.938 248.947 105.149C253.402 106.361 257.992 103.729 259.204 99.2744C260.416 94.8195 257.784 90.2292 253.329 89.0174ZM258.996 99.2188C258.426 101.316 257.072 103.07 255.187 104.149C253.298 105.229 251.107 105.51 249.006 104.941C246.909 104.372 245.155 103.017 244.076 101.129C242.996 99.2396 242.714 97.0452 243.284 94.948C243.853 92.8507 245.208 91.0973 247.093 90.0174C248.787 89.0452 250.732 88.7223 252.631 89.0799C252.846 89.1216 253.058 89.1702 253.273 89.2257C257.607 90.4028 260.173 94.8855 258.996 99.2188Z" fill="#F7812F"/>
<path d="M253.329 89.0171C251.177 88.4303 248.923 88.7185 246.986 89.8296C245.048 90.9373 243.659 92.7359 243.072 94.8887C242.486 97.0414 242.774 99.2949 243.885 101.232C244.993 103.17 246.791 104.559 248.947 105.146C249.166 105.205 249.385 105.257 249.604 105.298C251.555 105.666 253.548 105.333 255.291 104.333C257.229 103.225 258.618 101.427 259.204 99.2706C260.413 94.8227 257.777 90.222 253.329 89.0136V89.0171ZM258.798 99.163C258.243 101.208 256.923 102.916 255.083 103.969C253.243 105.021 251.107 105.295 249.059 104.739C247.013 104.184 245.305 102.864 244.253 101.024C243.201 99.1838 242.927 97.0449 243.482 94.9998C244.038 92.9546 245.357 91.2463 247.197 90.1942C248.85 89.2463 250.746 88.9303 252.597 89.2775C252.805 89.3157 253.013 89.3643 253.222 89.4199C257.444 90.5692 259.947 94.9373 258.798 99.1595V99.163Z" fill="#FEC008"/>
<path opacity="0.3" d="M257.248 100.705C259.247 97.3306 258.132 92.9751 254.758 90.9765C251.384 88.9779 247.028 90.093 245.03 93.4671C243.031 96.8412 244.146 101.197 247.52 103.195C250.894 105.194 255.25 104.079 257.248 100.705Z" fill="white"/>
<g style="mix-blend-mode:multiply" filter="url(#filter0_d_10913_8257)">
<path d="M251.178 93.4406L251.4 92.2705L252.445 92.4684L252.23 93.6073C253.254 93.8643 254.185 94.3782 254.678 94.9337L253.862 96.1004C253.41 95.6143 252.712 95.1907 251.973 94.9754L251.643 96.7219C252.751 97.2219 253.976 97.8539 253.695 99.3504C253.487 100.458 252.501 101.26 250.813 101.135L250.594 102.295L249.549 102.097L249.764 100.958C248.99 100.746 248.268 100.396 247.761 99.9198L248.525 98.7323C249.001 99.1351 249.511 99.4164 250.021 99.5761L250.355 97.7983C249.244 97.3087 248.042 96.6802 248.32 95.2045C248.525 94.1177 249.497 93.3261 251.178 93.4337V93.4406ZM251.355 98.2601L251.073 99.7462C251.65 99.7254 251.928 99.4615 251.994 99.1177C252.063 98.7532 251.785 98.4927 251.355 98.2601ZM250.028 95.399C249.959 95.7636 250.226 96.0205 250.646 96.2636L250.917 94.8191C250.372 94.8365 250.091 95.0657 250.028 95.399Z" fill="#FEC008"/>
</g>
<mask id="mask0_10913_8257" style="mask-type:luminance" maskUnits="userSpaceOnUse" x="244" y="89" width="15" height="16">
<path d="M257.252 100.705C259.25 97.3306 258.135 92.9751 254.761 90.9765C251.387 88.9779 247.032 90.093 245.033 93.4671C243.035 96.8412 244.15 101.197 247.524 103.195C250.898 105.194 255.253 104.079 257.252 100.705Z" fill="white"/>
</mask>
<g mask="url(#mask0_10913_8257)">
<g opacity="0.2">
<path d="M261.022 93.1756L260.111 91.5847L241.201 102.415L242.112 104.006L261.022 93.1756Z" fill="#FFE6B3"/>
<path d="M258.899 91.3383L257.264 88.4849L238.354 99.3148L239.989 102.168L258.899 91.3383Z" fill="#FFE6B3"/>
<path d="M261.849 94.9417L261.393 94.1462L242.483 104.976L242.939 105.772L261.849 94.9417Z" fill="#FFE6B3"/>
</g>
</g>
<path opacity="0.3" d="M244.469 95.486C245.497 91.7013 249.399 89.4687 253.181 90.4964C254.799 90.9374 256.132 91.9062 257.049 93.1631C256.132 91.7777 254.729 90.7013 253 90.2326C249.215 89.2048 245.316 91.4374 244.288 95.2221C243.701 97.3888 244.184 99.5867 245.41 101.271C244.319 99.6249 243.91 97.5416 244.469 95.4895V95.486Z" fill="white"/>
<path opacity="0.3" d="M256.884 92.9197C257.999 94.5725 258.419 96.6766 257.856 98.7496C256.829 102.534 252.926 104.767 249.144 103.739C247.516 103.298 246.176 102.319 245.259 101.052C246.179 102.413 247.568 103.468 249.276 103.934C253.061 104.961 256.96 102.729 257.988 98.944C258.575 96.7877 258.099 94.5968 256.884 92.9197Z" fill="white"/>
<path d="M252.102 86.9236C251.828 86.9028 251.553 86.8923 251.282 86.8923C248.869 86.8923 246.557 87.743 244.703 89.3264C242.637 91.0868 241.38 93.5486 241.164 96.2569C240.949 98.9653 241.803 101.594 243.564 103.66C245.328 105.726 247.786 106.983 250.494 107.198C253.206 107.41 255.831 106.559 257.897 104.799C259.963 103.038 261.22 100.576 261.435 97.8681C261.88 92.2812 257.692 87.3715 252.105 86.9305L252.102 86.9236Z" fill="#EC6D00"/>
<path d="M252.122 86.6559C246.376 86.201 241.348 90.4892 240.893 96.2323C240.438 101.975 244.726 107.007 250.469 107.462C256.216 107.916 261.244 103.628 261.699 97.8851C262.153 92.1385 257.865 87.1108 252.122 86.6559ZM261.431 97.8643C261.216 100.573 259.959 103.031 257.893 104.795C255.827 106.555 253.202 107.409 250.49 107.194C247.782 106.979 245.324 105.722 243.56 103.656C241.799 101.59 240.945 98.9615 241.16 96.2531C241.376 93.5448 242.633 91.0865 244.699 89.3226C246.556 87.7392 248.865 86.8885 251.278 86.8885C251.549 86.8885 251.824 86.8989 252.098 86.9198C257.685 87.3642 261.872 92.2705 261.428 97.8573L261.431 97.8643Z" fill="#F7812F"/>
<path d="M252.123 86.6562C249.345 86.434 246.647 87.309 244.526 89.1181C242.404 90.9271 241.116 93.4549 240.894 96.2327C240.672 99.0104 241.547 101.708 243.356 103.83C245.165 105.951 247.692 107.24 250.47 107.462C250.752 107.486 251.033 107.497 251.314 107.497C253.793 107.497 256.165 106.625 258.068 105C260.189 103.191 261.477 100.663 261.699 97.8854C262.154 92.1493 257.859 87.1111 252.123 86.6562ZM261.179 97.8438C260.97 100.483 259.745 102.882 257.731 104.601C255.717 106.319 253.158 107.149 250.515 106.941C247.877 106.733 245.477 105.507 243.758 103.493C242.04 101.479 241.21 98.9167 241.418 96.2778C241.626 93.6389 242.852 91.2396 244.866 89.5208C246.675 87.9757 248.929 87.1493 251.283 87.1493C251.547 87.1493 251.814 87.1597 252.081 87.1805C257.529 87.6146 261.609 92.3958 261.175 97.8438H261.179Z" fill="#EC6D00"/>
<path opacity="0.3" d="M255.361 104.933C259.712 102.687 261.417 97.3394 259.171 92.9894C256.925 88.6393 251.577 86.9337 247.227 89.1799C242.877 91.4262 241.172 96.7735 243.418 101.124C245.664 105.474 251.011 107.179 255.361 104.933Z" fill="white"/>
<path opacity="0.3" d="M242.741 96.6387C243.13 91.7568 247.401 88.1144 252.279 88.5033C254.366 88.67 256.224 89.5484 257.641 90.8818C256.193 89.3922 254.227 88.3991 251.995 88.222C247.113 87.8331 242.842 91.479 242.456 96.3575C242.234 99.1491 243.335 101.739 245.231 103.521C243.512 101.753 242.529 99.2915 242.741 96.6422V96.6387Z" fill="white"/>
<path opacity="0.3" d="M257.385 90.6211C259.135 92.3919 260.135 94.878 259.923 97.5517C259.534 102.434 255.263 106.076 250.385 105.687C248.284 105.52 246.416 104.632 244.996 103.288C246.437 104.746 248.388 105.722 250.593 105.895C255.475 106.284 259.746 102.638 260.131 97.76C260.354 94.9787 259.263 92.3989 257.385 90.6211Z" fill="white"/>
<path d="M255.094 95.7667L254.681 96.3735L248.778 94.7343L249.184 94.1256L255.094 95.7667ZM251.158 102.003L248.71 97.1381L248.861 96.5741L249.94 96.8739C250.469 97.0206 250.932 97.0494 251.33 96.9603C251.727 96.8712 252.058 96.6997 252.32 96.4459C252.582 96.1921 252.762 95.8905 252.86 95.541C252.977 95.12 252.982 94.7265 252.873 94.3606C252.764 93.9947 252.545 93.6729 252.215 93.3953C251.886 93.1135 251.446 92.8961 250.895 92.7431L249.549 92.3693L249.969 91.7644L251.082 92.0737C251.793 92.271 252.37 92.5493 252.815 92.9086C253.26 93.2637 253.558 93.6842 253.707 94.1702C253.86 94.6574 253.855 95.1936 253.692 95.7788C253.559 96.2545 253.329 96.6648 253.002 97.0095C252.681 97.3513 252.256 97.5804 251.728 97.6968C251.205 97.8103 250.573 97.764 249.83 97.5579L252.151 102.19L252.128 102.272L251.158 102.003ZM255.762 93.3732L255.35 93.98L250.055 92.5097L250.467 91.9029L255.762 93.3732Z" fill="white"/>
<path d="M128.662 26.7744C128.662 31.0175 132.1 34.455 136.343 34.455C132.1 34.455 128.662 37.8925 128.662 42.1356C128.662 37.8925 125.225 34.455 120.982 34.455C125.225 34.455 128.662 31.0175 128.662 26.7744Z" fill="#FFB717"/>
<path d="M135.02 22C135.02 24.4167 136.978 26.375 139.395 26.375C136.978 26.375 135.02 28.3333 135.02 30.75C135.02 28.3333 133.062 26.375 130.645 26.375C133.062 26.375 135.02 24.4167 135.02 22Z" fill="#FFB717"/>
<g clip-path="url(#clip0_10913_8257)">
<path d="M103.409 161.837H158.342V157.568H103.409V161.837Z" fill="#5CD673"/>
<path d="M103.409 161.837H158.342V160.834H103.409V161.837Z" fill="#58A967"/>
<path d="M103.41 161.837H112.272V157.568H103.41V161.837Z" fill="#4AC65D"/>
<path d="M103.41 161.837H112.272V160.834H103.41V161.837Z" fill="#4C9B57"/>
<path d="M103.409 165.815H158.342V161.546H103.409V165.815Z" fill="#5CD673"/>
<path d="M103.409 165.815H158.342V164.812H103.409V165.815Z" fill="#58A967"/>
<path d="M103.41 165.815H112.272V161.546H103.41V165.815Z" fill="#4AC65D"/>
<path d="M103.41 165.815H112.272V164.812H103.41V165.815Z" fill="#4C9B57"/>
<path d="M103.409 169.788H158.342V165.519H103.409V169.788Z" fill="#5CD673"/>
<path d="M103.409 169.788H158.342V168.785H103.409V169.788Z" fill="#58A967"/>
<path d="M103.41 169.788H112.272V165.519H103.41V169.788Z" fill="#4AC65D"/>
<path d="M103.41 169.788H112.272V168.785H103.41V169.788Z" fill="#4C9B57"/>
<path d="M103.409 173.766H158.342V169.497H103.409V173.766Z" fill="#5CD673"/>
<path d="M103.409 173.766H158.342V172.763H103.409V173.766Z" fill="#58A967"/>
<path d="M103.41 173.766H112.272V169.497H103.41V173.766Z" fill="#4AC65D"/>
<path d="M103.41 173.766H112.272V172.763H103.41V173.766Z" fill="#4C9B57"/>
<path d="M134.396 173.751H139.198V157.5H134.396V173.751Z" fill="#A4E894"/>
</g>
<defs>
<filter id="filter0_d_10913_8257" x="247.761" y="92.2705" width="7.06252" height="10.2189" filterUnits="userSpaceOnUse" color-interpolation-filters="sRGB">
<feFlood flood-opacity="0" result="BackgroundImageFix"/>
<feColorMatrix in="SourceAlpha" type="matrix" values="0 0 0 0 0 0 0 0 0 0 0 0 0 0 0 0 0 0 127 0" result="hardAlpha"/>
<feOffset dx="0.145834" dy="0.194445"/>
<feColorMatrix type="matrix" values="0 0 0 0 0.286275 0 0 0 0 0.192157 0 0 0 0 0.027451 0 0 0 0.4 0"/>
<feBlend mode="normal" in2="BackgroundImageFix" result="effect1_dropShadow_10913_8257"/>
<feBlend mode="normal" in="SourceGraphic" in2="effect1_dropShadow_10913_8257" result="shape"/>
</filter>
<clipPath id="clip0_10913_8257">
<rect width="54.9325" height="16.2612" fill="white" transform="translate(103.409 157.5)"/>
</clipPath>
</defs>
</svg>
