<svg width="136" height="40" viewBox="0 0 136 40" fill="none" xmlns="http://www.w3.org/2000/svg">
<path d="M70.6671 33.3932H52.4614V31.8472L61.9395 15.8481H52.4614V10.416H70.6671V12.0956L61.1659 27.9586H70.6671V33.3932" fill="#0ACE5F"/>
<path fill-rule="evenodd" clip-rule="evenodd" d="M76.4138 13.5628C74.2845 15.7141 73.2195 18.483 73.2195 21.8622C73.2195 25.2448 74.2845 28.013 76.4138 30.1635C78.5462 32.3164 81.2845 33.3943 84.633 33.3943C89.1995 33.3943 92.3194 32.2416 93.994 29.9351L90.3433 26.2443C88.6681 27.4737 86.7642 28.0895 84.633 28.0895C83.4173 28.0895 82.3499 27.7418 81.4359 27.0548C80.5248 26.3582 79.9898 25.395 79.8394 24.1687H95.5938V21.8622C95.5938 18.483 94.6051 15.7141 92.626 13.5628C90.6475 11.4107 87.9812 10.332 84.633 10.332C81.2845 10.332 78.5462 11.4107 76.4138 13.5628ZM84.6328 15.6348C85.8545 15.6348 86.918 15.9793 87.8323 16.6714C88.7442 17.3647 89.1994 18.3238 89.1994 19.5523H80.0655C80.0655 18.3238 80.5247 17.3647 81.4358 16.6714C82.3498 15.9793 83.4172 15.6348 84.6328 15.6348Z" fill="#0ACE5F"/>
<path d="M112.219 11.0302C113.403 11.5527 114.512 12.3285 115.548 13.3559L111.985 17.4131C110.954 16.1688 109.662 15.5454 108.107 15.5454C106.573 15.5454 105.545 15.835 105.032 16.4099C104.516 16.9849 104.516 17.5091 105.032 17.9776C105.545 18.4437 106.573 18.8317 108.107 19.1397C110.38 19.3551 112.23 20.0065 113.674 21.1001C115.12 22.1895 115.841 24.0856 115.841 26.7886C115.841 28.9685 114.988 30.6572 113.287 31.8571C111.584 33.0547 109.602 33.6507 107.333 33.6507C105.176 33.6507 103.376 33.341 101.938 32.7225C100.505 32.0981 99.2688 31.2659 98.2307 30.2216L101.766 26.192C102.803 27.4329 104.406 28.1532 106.579 28.3507C108.331 28.3507 109.458 28.0668 109.97 27.4886C110.481 26.9169 110.554 26.3371 110.197 25.7652C109.84 25.187 108.634 24.7977 106.579 24.5984C104.723 24.383 103.023 23.8088 101.477 22.8695C99.9405 21.9363 99.1658 20.1695 99.1658 17.5736C99.1658 15.1921 100.047 13.3793 101.803 12.1244C103.561 10.8746 105.365 10.248 107.22 10.248C109.364 10.248 111.028 10.5101 112.219 11.0302" fill="#0ACE5F"/>
<path d="M130.36 33.3987C127.771 33.3987 125.714 32.6686 124.192 31.2079C122.671 29.7518 121.907 27.8691 121.907 25.5596V15.5844H118.479V10.3798H121.907V4.13473L128.33 3.44336V10.3798H131.756V15.5844H128.33V24.6424C128.33 25.8685 128.582 26.7349 129.092 27.2343C129.6 27.7352 130.263 27.9836 131.065 27.9836C131.31 27.9836 131.886 27.8811 132.78 27.686L134.132 32.3137C133.035 33.0365 131.779 33.3987 130.36 33.3987" fill="#0ACE5F"/>
<mask id="mask0_1683_26089" style="mask-type:alpha" maskUnits="userSpaceOnUse" x="1" y="1" width="38" height="38">
<path fill-rule="evenodd" clip-rule="evenodd" d="M19.7773 1H1.00024V39H38.5544V1H19.7773Z" fill="white"/>
</mask>
<g mask="url(#mask0_1683_26089)">
<path d="M35.9567 29.644C37.6051 26.8167 38.5543 23.5229 38.5543 20.0028C38.5543 15.5319 37.025 11.4252 34.4721 8.17969L21.6345 29.644H35.9567" fill="#0ACE5F"/>
</g>
<mask id="mask1_1683_26089" style="mask-type:alpha" maskUnits="userSpaceOnUse" x="1" y="1" width="38" height="38">
<path fill-rule="evenodd" clip-rule="evenodd" d="M19.7773 1H1.00024V39H38.5544V1H19.7773Z" fill="white"/>
</mask>
<g mask="url(#mask1_1683_26089)">
<path d="M32.4005 5.93629C29.0655 2.86881 24.6354 1 19.7742 1C14.1785 1 9.15778 3.47828 5.71704 7.40646H23.0404L7.22584 34.1414C10.5519 37.1658 14.9497 39.0079 19.7742 39.0079C25.369 39.0079 30.3898 36.5296 33.8301 32.6014H16.452L32.4005 5.93629" fill="#0ACE5F"/>
</g>
<mask id="mask2_1683_26089" style="mask-type:alpha" maskUnits="userSpaceOnUse" x="1" y="1" width="38" height="38">
<path fill-rule="evenodd" clip-rule="evenodd" d="M1.00024 1V39H38.5544V1H19.7773H1.00024Z" fill="white"/>
</mask>
<g mask="url(#mask2_1683_26089)">
<path d="M0.991943 20.0027C0.991943 24.5112 2.54708 28.651 5.13981 31.9095L17.8865 10.3613H3.58974C1.94167 13.1881 0.991943 16.4827 0.991943 20.0027Z" fill="#0ACE5F"/>
</g>
</svg>
