<svg width="22" height="22" viewBox="0 0 22 22" fill="none" xmlns="http://www.w3.org/2000/svg">
<path d="M9.2 5.40039H3.2C2.53726 5.40039 2 5.93765 2 6.60039V17.4004C2 18.0631 2.53726 18.6004 3.2 18.6004H18.8C19.4627 18.6004 20 18.0631 20 17.4004V6.60039C20 5.93765 19.4627 5.40039 18.8 5.40039H12.8" stroke="#4A4A4A" stroke-width="1.1" stroke-linecap="round" stroke-linejoin="round"/>
<path fill-rule="evenodd" clip-rule="evenodd" d="M12.7992 4.8C12.7992 3.80589 11.9933 3 10.9992 3C10.0051 3 9.19922 3.80589 9.19922 4.8V7.2C9.19922 7.35913 9.26243 7.51174 9.37495 7.62426C9.48748 7.73679 9.64009 7.8 9.79922 7.8H12.1992C12.5306 7.8 12.7992 7.53137 12.7992 7.2V4.8Z" stroke="#4A4A4A" stroke-width="1.1" stroke-linecap="round" stroke-linejoin="round"/>
<path fill-rule="evenodd" clip-rule="evenodd" d="M8.00039 14.4002C9.16019 14.4002 10.1004 13.46 10.1004 12.3002C10.1004 11.1404 9.16019 10.2002 8.00039 10.2002C6.84059 10.2002 5.90039 11.1404 5.90039 12.3002C5.90039 13.46 6.84059 14.4002 8.00039 14.4002Z" stroke="#4A4A4A" stroke-width="1.1" stroke-linecap="round" stroke-linejoin="round"/>
<path fill-rule="evenodd" clip-rule="evenodd" d="M4.40039 18.6C4.40039 16.6118 6.01217 15 8.00039 15C9.98862 15 11.6004 16.6118 11.6004 18.6H4.40039Z" stroke="#4A4A4A" stroke-width="1.1" stroke-linecap="round" stroke-linejoin="round"/>
<path d="M12.8008 11.3994H16.4008" stroke="#4A4A4A" stroke-width="1.1" stroke-linecap="round" stroke-linejoin="round"/>
<path d="M12.8008 13.7998H17.6008" stroke="#4A4A4A" stroke-width="1.1" stroke-linecap="round" stroke-linejoin="round"/>
</svg>
