<svg width="24" height="24" viewBox="0 0 24 24" fill="none" xmlns="http://www.w3.org/2000/svg">
<g clip-path="url(#clip0_1653_93)">
<path d="M6 16.7996H5.4C4.76348 16.7996 4.15303 16.5468 3.70294 16.0967C3.25286 15.6466 3 15.0361 3 14.3996V11.9996C3 11.3631 3.25286 10.7526 3.70294 10.3026C4.15303 9.85247 4.76348 9.59961 5.4 9.59961H6C6.15913 9.59961 6.31174 9.66282 6.42426 9.77535C6.53679 9.88787 6.6 10.0405 6.6 10.1996V16.1996C6.6 16.3587 6.53679 16.5114 6.42426 16.6239C6.31174 16.7364 6.15913 16.7996 6 16.7996Z" stroke="black" stroke-width="1.44" stroke-linecap="round" stroke-linejoin="round"/>
<path d="M18.5999 16.7996H17.9999C17.8408 16.7996 17.6882 16.7364 17.5756 16.6239C17.4631 16.5114 17.3999 16.3587 17.3999 16.1996V10.1996C17.3999 10.0405 17.4631 9.88787 17.5756 9.77535C17.6882 9.66282 17.8408 9.59961 17.9999 9.59961H18.5999C19.2364 9.59961 19.8469 9.85247 20.297 10.3026C20.747 10.7526 20.9999 11.3631 20.9999 11.9996V14.3996C20.9999 15.0361 20.747 15.6466 20.297 16.0967C19.8469 16.5468 19.2364 16.7996 18.5999 16.7996Z" stroke="black" stroke-width="1.44" stroke-linecap="round" stroke-linejoin="round"/>
<path d="M5.3999 9.6C5.3999 7.84957 6.09526 6.17084 7.333 4.9331C8.57074 3.69536 10.2495 3 11.9999 3V3C13.7503 3 15.4291 3.69536 16.6668 4.9331C17.9045 6.17084 18.5999 7.84957 18.5999 9.6" stroke="black" stroke-width="1.44" stroke-linecap="round" stroke-linejoin="round"/>
<path d="M14.3999 19.7998H16.1999C16.8364 19.7998 17.4469 19.5469 17.897 19.0969C18.347 18.6468 18.5999 18.0363 18.5999 17.3998V16.7998" stroke="black" stroke-width="1.44" stroke-linecap="round" stroke-linejoin="round"/>
<path d="M13.1998 20.9996H11.9998C11.6815 20.9996 11.3763 20.8732 11.1513 20.6481C10.9262 20.4231 10.7998 20.1179 10.7998 19.7996C10.7998 19.4813 10.9262 19.1761 11.1513 18.9511C11.3763 18.726 11.6815 18.5996 11.9998 18.5996H13.1998C13.5181 18.5996 13.8233 18.726 14.0483 18.9511C14.2734 19.1761 14.3998 19.4813 14.3998 19.7996C14.3998 20.1179 14.2734 20.4231 14.0483 20.6481C13.8233 20.8732 13.5181 20.9996 13.1998 20.9996Z" stroke="black" stroke-width="1.44" stroke-linecap="round" stroke-linejoin="round"/>
</g>
<defs>
<clipPath id="clip0_1653_93">
<rect width="20" height="20" fill="white" transform="translate(2 2)"/>
</clipPath>
</defs>
</svg>
