<svg width="24" height="24" viewBox="0 0 24 24" fill="none" xmlns="http://www.w3.org/2000/svg">
<path d="M9.33398 9.33332C9.33424 7.97726 10.3522 6.83733 11.6996 6.68422C13.0469 6.53111 14.2947 7.41357 14.5992 8.735C14.9037 10.0564 14.168 11.396 12.8895 11.848C12.3566 12.0364 12.0004 12.5405 12.0007 13.1058V14" stroke="#4A4A4A" stroke-width="1.375" stroke-linecap="round" stroke-linejoin="round"/>
<path d="M11.9993 16.6665C11.8153 16.6665 11.666 16.8157 11.666 16.9998C11.666 17.1839 11.8153 17.3332 11.9993 17.3332C12.1834 17.3332 12.3327 17.1839 12.3327 16.9998C12.3327 16.8157 12.1834 16.6665 11.9993 16.6665V16.6665" stroke="#4A4A4A" stroke-width="1.375" stroke-linecap="round" stroke-linejoin="round"/>
<path fill-rule="evenodd" clip-rule="evenodd" d="M12 22C17.5228 22 22 17.5228 22 12C22 6.47715 17.5228 2 12 2C6.47715 2 2 6.47715 2 12C2 17.5228 6.47715 22 12 22Z" stroke="#4A4A4A" stroke-width="1.375"/>
</svg>
