<svg width="16" height="16" viewBox="0 0 16 16" fill="none" xmlns="http://www.w3.org/2000/svg">
<path d="M13.9091 6.49921V4.84922V3.03255C13.9091 2.29617 13.3121 1.69922 12.5758 1.69922H2.83333C2.09695 1.69922 1.5 2.29617 1.5 3.03255V12.9659C1.5 13.7023 2.09695 14.2992 2.83333 14.2992H12.5758C13.3121 14.2992 13.9091 13.7023 13.9091 12.9659V11.1492L14 10.4992" stroke="white" stroke-width="0.886667"/>
<path d="M13.5151 10.6852C13.7763 10.6852 14.0268 10.598 14.2115 10.4429C14.3962 10.2877 14.4999 10.0773 14.4999 9.85792V7.3761C14.4999 7.15669 14.3962 6.94627 14.2115 6.79113C14.0268 6.63599 13.7763 6.54883 13.5151 6.54883H11.0529C10.3999 6.54883 9.7737 6.76673 9.31196 7.15458C8.85022 7.54244 8.59082 8.06849 8.59082 8.61701C8.59082 9.16553 8.85022 9.69158 9.31196 10.0794C9.7737 10.4673 10.3999 10.6852 11.0529 10.6852H13.5151Z" stroke="white" stroke-width="0.886667" stroke-linecap="round" stroke-linejoin="round"/>
<path d="M10.659 8.32227C10.7174 8.32227 10.7745 8.33959 10.8231 8.37206C10.8717 8.40452 10.9096 8.45067 10.9319 8.50465C10.9543 8.55864 10.9602 8.61805 10.9488 8.67536C10.9374 8.73267 10.9092 8.78532 10.8679 8.82664C10.8266 8.86796 10.7739 8.8961 10.7166 8.9075C10.6593 8.9189 10.5999 8.91305 10.5459 8.89068C10.4919 8.86832 10.4458 8.83045 10.4133 8.78187C10.3809 8.73328 10.3635 8.67616 10.3635 8.61772C10.3635 8.53936 10.3947 8.46421 10.4501 8.4088C10.5055 8.35339 10.5806 8.32227 10.659 8.32227Z" stroke="white" stroke-width="1.33333" stroke-linecap="round" stroke-linejoin="round"/>
</svg>
