<svg width="24" height="24" viewBox="0 0 24 24" fill="none" xmlns="http://www.w3.org/2000/svg">
<g clip-path="url(#clip0_9872_81250)">
<path d="M7.875 5.125H9.9375" stroke="black" stroke-width="1.375" stroke-linecap="round" stroke-linejoin="round"/>
<path d="M8.5625 8.5625H14.0625" stroke="black" stroke-width="1.375" stroke-linecap="round" stroke-linejoin="round"/>
<path d="M8.5625 12H14.0625" stroke="black" stroke-width="1.375" stroke-linecap="round" stroke-linejoin="round"/>
<path d="M8.5625 15.4375H14.0625" stroke="black" stroke-width="1.375" stroke-linecap="round" stroke-linejoin="round"/>
<path d="M8.5625 18.875H11.3125" stroke="black" stroke-width="1.375" stroke-linecap="round" stroke-linejoin="round"/>
<path d="M18.875 1.6875H20.25C20.6147 1.6875 20.9644 1.83237 21.2223 2.09023C21.4801 2.34809 21.625 2.69783 21.625 3.0625V6.95833C21.625 7.20145 21.5284 7.43461 21.3565 7.60651C21.1846 7.77842 20.9514 7.875 20.7083 7.875H17.5V3.0625C17.5 2.69783 17.6449 2.34809 17.9027 2.09023C18.1606 1.83237 18.5103 1.6875 18.875 1.6875V1.6875Z" stroke="black" stroke-width="1.375" stroke-linecap="round" stroke-linejoin="round"/>
<path d="M19.5625 1.6875H7.875C7.14565 1.6875 6.44618 1.97723 5.93046 2.49296C5.41473 3.00868 5.125 3.70815 5.125 4.4375V18.1875C5.125 20.9375 3.75 21.7405 2.375 22.3125H13.375C14.469 22.3125 15.5182 21.8779 16.2918 21.1043C17.0654 20.3307 17.5 19.2815 17.5 18.1875V7.875" stroke="black" stroke-width="1.375" stroke-linecap="round" stroke-linejoin="round"/>
</g>
<defs>
<clipPath id="clip0_9872_81250">
<rect width="22" height="22" fill="white" transform="translate(1 1)"/>
</clipPath>
</defs>
</svg>
