<svg width="21" height="21" viewBox="0 0 21 21" fill="none" xmlns="http://www.w3.org/2000/svg">
<path fill-rule="evenodd" clip-rule="evenodd" d="M7.45169 9.76281L6.56836 13.2986L10.1034 12.4145L15.4067 7.11114L12.755 4.45947L7.45169 9.76281Z" stroke="#4A4A4A" stroke-width="1.3" stroke-linecap="round" stroke-linejoin="round"/>
<path d="M18.5008 4.01758L19.3842 4.90091C19.6188 5.13535 19.7506 5.45342 19.7506 5.78508C19.7506 6.11674 19.6188 6.4348 19.3842 6.66924L16.625 9.42758" stroke="#4A4A4A" stroke-width="1.3" stroke-linecap="round" stroke-linejoin="round"/>
<path d="M15.4075 7.11098L18.5017 4.01765C18.7363 3.78321 18.8681 3.46514 18.8681 3.13348C18.8681 2.80182 18.7363 2.48376 18.5017 2.24932L17.6175 1.36598C17.1294 0.878006 16.3382 0.878006 15.85 1.36598L12.7559 4.45848" stroke="#4A4A4A" stroke-width="1.3" stroke-linecap="round" stroke-linejoin="round"/>
<path d="M17.2508 11.625V14.2317C17.2508 14.5634 17.1189 14.8814 16.8842 15.1158L12.6167 19.3833C12.3823 19.618 12.0642 19.7499 11.7325 19.75H2.25C1.55964 19.75 1 19.1904 1 18.5V2.25C1 1.55964 1.55964 1 2.25 1H11.625" stroke="#4A4A4A" stroke-width="1.3" stroke-linecap="round" stroke-linejoin="round"/>
<path d="M12.25 19.6375V16C12.25 15.3096 12.8096 14.75 13.5 14.75H17.1375" stroke="#4A4A4A" stroke-width="1.3" stroke-linecap="round" stroke-linejoin="round"/>
</svg>
